<svg width="64" height="46" viewBox="0 0 64 46" fill="none" xmlns="http://www.w3.org/2000/svg">
<g id="Group 32">
<path id="Vector" d="M5.1865 37.4325L2.875 37.8925V46H5.75C13.7511 46 19.8547 43.7834 23.8884 39.4105C29.3135 33.5225 28.7673 25.9613 28.75 25.875V2.875C28.75 2.1125 28.4471 1.38124 27.9079 0.842069C27.3688 0.302901 26.6375 0 25.875 0H5.75C2.57887 0 0 2.57887 0 5.75V25.875C0 26.6375 0.302901 27.3688 0.842069 27.9079C1.38124 28.4471 2.1125 28.75 2.875 28.75H14.5992C14.5385 30.1714 14.1138 31.5533 13.3659 32.7635C11.9083 35.0664 9.15687 36.6361 5.1865 37.4325Z" fill="#5956E8" fill-opacity="0.1"/>
<path id="Vector_2" d="M39.5015 37.4325L37.19 37.8925V46H40.065C48.0661 46 54.1698 43.7834 58.2034 39.4105C63.6285 33.5225 63.0823 25.9613 63.065 25.875V2.875C63.065 2.1125 62.7621 1.38124 62.2229 0.842069C61.6838 0.302901 60.9525 0 60.19 0H40.065C36.8939 0 34.315 2.57887 34.315 5.75V25.875C34.315 26.6375 34.6179 27.3688 35.1571 27.9079C35.6962 28.4471 36.4275 28.75 37.19 28.75H48.9143C48.8535 30.1714 48.4288 31.5533 47.6809 32.7635C46.2233 35.0664 43.4719 36.6361 39.5015 37.4325Z" fill="#5956E8" fill-opacity="0.1"/>
</g>
</svg>
