<svg width="37" height="37" viewBox="0 0 37 37" fill="none" xmlns="http://www.w3.org/2000/svg">
<g id="Design tools / line spacing">
<path id="Vector" d="M9.69708 14.9696C9.8404 15.1141 10.0109 15.2288 10.1988 15.307C10.3866 15.3853 10.5882 15.4256 10.7917 15.4256C10.9952 15.4256 11.1967 15.3853 11.3846 15.307C11.5724 15.2288 11.7429 15.1141 11.8863 14.9696C12.0307 14.8263 12.1454 14.6558 12.2237 14.4679C12.302 14.28 12.3423 14.0785 12.3423 13.875C12.3423 13.6715 12.302 13.47 12.2237 13.2821C12.1454 13.0942 12.0307 12.9237 11.8863 12.7804L8.80292 9.69708C8.6563 9.55673 8.48341 9.44671 8.29417 9.37333C7.91883 9.21914 7.49784 9.21914 7.1225 9.37333C6.93326 9.44671 6.76037 9.55673 6.61375 9.69708L3.53042 12.7804C3.24012 13.0707 3.07703 13.4645 3.07703 13.875C3.07703 14.2855 3.24012 14.6793 3.53042 14.9696C3.82072 15.2599 4.21445 15.423 4.625 15.423C5.03555 15.423 5.42928 15.2599 5.71958 14.9696L6.16667 14.5071V22.4929L5.71958 22.0304C5.42928 21.7401 5.03555 21.577 4.625 21.577C4.21445 21.577 3.82072 21.7401 3.53042 22.0304C3.24012 22.3207 3.07703 22.7145 3.07703 23.125C3.07703 23.5355 3.24012 23.9293 3.53042 24.2196L6.61375 27.3029C6.76037 27.4433 6.93326 27.5533 7.1225 27.6267C7.30704 27.7082 7.50658 27.7504 7.70833 27.7504C7.91009 27.7504 8.10963 27.7082 8.29417 27.6267C8.48341 27.5533 8.6563 27.4433 8.80292 27.3029L11.8863 24.2196C12.03 24.0758 12.144 23.9052 12.2218 23.7174C12.2996 23.5296 12.3396 23.3283 12.3396 23.125C12.3396 22.9217 12.2996 22.7204 12.2218 22.5326C12.144 22.3448 12.03 22.1742 11.8863 22.0304C11.7425 21.8867 11.5719 21.7726 11.3841 21.6949C11.1962 21.6171 10.995 21.577 10.7917 21.577C10.5884 21.577 10.3871 21.6171 10.1993 21.6949C10.0115 21.7726 9.84083 21.8867 9.69708 22.0304L9.25 22.4929V14.5071L9.69708 14.9696ZM16.9583 12.3333H32.375C32.7839 12.3333 33.176 12.1709 33.4651 11.8818C33.7542 11.5927 33.9167 11.2005 33.9167 10.7917C33.9167 10.3828 33.7542 9.99066 33.4651 9.70154C33.176 9.41243 32.7839 9.25 32.375 9.25H16.9583C16.5495 9.25 16.1573 9.41243 15.8682 9.70154C15.5791 9.99066 15.4167 10.3828 15.4167 10.7917C15.4167 11.2005 15.5791 11.5927 15.8682 11.8818C16.1573 12.1709 16.5495 12.3333 16.9583 12.3333ZM32.375 16.9583H16.9583C16.5495 16.9583 16.1573 17.1208 15.8682 17.4099C15.5791 17.699 15.4167 18.0911 15.4167 18.5C15.4167 18.9089 15.5791 19.301 15.8682 19.5901C16.1573 19.8792 16.5495 20.0417 16.9583 20.0417H32.375C32.7839 20.0417 33.176 19.8792 33.4651 19.5901C33.7542 19.301 33.9167 18.9089 33.9167 18.5C33.9167 18.0911 33.7542 17.699 33.4651 17.4099C33.176 17.1208 32.7839 16.9583 32.375 16.9583ZM32.375 24.6667H16.9583C16.5495 24.6667 16.1573 24.8291 15.8682 25.1182C15.5791 25.4073 15.4167 25.7995 15.4167 26.2083C15.4167 26.6172 15.5791 27.0093 15.8682 27.2985C16.1573 27.5876 16.5495 27.75 16.9583 27.75H32.375C32.7839 27.75 33.176 27.5876 33.4651 27.2985C33.7542 27.0093 33.9167 26.6172 33.9167 26.2083C33.9167 25.7995 33.7542 25.4073 33.4651 25.1182C33.176 24.8291 32.7839 24.6667 32.375 24.6667Z" fill="#5956E8"/>
</g>
</svg>
